<svg xmlns="http://www.w3.org/2000/svg" width="1120" height="268" viewBox="0 0 1120 268">
<style>text{font-family:Arial,sans-serif;font-size:13px}.title{font-size:18px;font-weight:700}.axis{fill:#444}</style>
<text class="title" x="20" y="28">Assignment impact on real CRISPR reads</text>
<text class="axis" x="20" y="50">Exact assigned, one-edit rescued, ambiguous, and rejected reads</text>
<text x="20" y="97">dotmatch_exact_k0</text>
<rect x="310" y="82" width="505" height="21" rx="2" fill="#2f7d68"/>
<rect x="815" y="82" width="59" height="21" rx="2" fill="#8f4f4f"/>
<text x="890" y="97">exact 17894, rescued 0, ambig 0, rejected 2106</text>
<text x="20" y="135">dotmatch_levenshtein_k1</text>
<rect x="310" y="120" width="505" height="21" rx="2" fill="#2f7d68"/>
<rect x="815" y="120" width="45" height="21" rx="2" fill="#476fb3"/>
<rect x="860" y="120" width="1" height="21" rx="2" fill="#d19a3c"/>
<rect x="861" y="120" width="12" height="21" rx="2" fill="#8f4f4f"/>
<text x="890" y="135">exact 17894, rescued 1616, ambig 38, rejected 452</text>
<text x="20" y="173">dotmatch_hamming_k1</text>
<rect x="310" y="158" width="505" height="21" rx="2" fill="#2f7d68"/>
<rect x="815" y="158" width="14" height="21" rx="2" fill="#476fb3"/>
<rect x="829" y="158" width="44" height="21" rx="2" fill="#8f4f4f"/>
<text x="890" y="173">exact 17894, rescued 522, ambig 1, rejected 1583</text>
<text x="20" y="211">mageck_count_exact</text>
<rect x="310" y="196" width="505" height="21" rx="2" fill="#2f7d68"/>
<rect x="815" y="196" width="59" height="21" rx="2" fill="#8f4f4f"/>
<text x="890" y="211">exact 17894, rescued 0, ambig 0, rejected 2106</text>
<text x="20" y="249">guide_counter_one_mismatch</text>
<text x="890" y="249">exact 0, rescued 0, ambig 0, rejected 0</text>
<rect x="310" y="51" width="12" height="12" fill="#2f7d68"/>
<text x="326" y="62">exact</text>
<rect x="415" y="51" width="12" height="12" fill="#476fb3"/>
<text x="431" y="62">corrected</text>
<rect x="520" y="51" width="12" height="12" fill="#d19a3c"/>
<text x="536" y="62">ambiguous</text>
<rect x="625" y="51" width="12" height="12" fill="#8f4f4f"/>
<text x="641" y="62">rejected</text>
</svg>